<?xml version="1.0" standalone="no"?>
<!DOCTYPE svg PUBLIC "-//W3C//DTD SVG 20010904//EN"
 "http://www.w3.org/TR/2001/REC-SVG-20010904/DTD/svg10.dtd">
<svg version="1.0" xmlns="http://www.w3.org/2000/svg"
 width="117.000000pt" height="84.000000pt" viewBox="0 0 117.000000 84.000000"
 preserveAspectRatio="xMidYMid meet">

<g transform="translate(0.000000,84.000000) scale(0.100000,-0.100000)"
fill="#000000" stroke="none">
<path d="M0 420 l0 -420 585 0 585 0 0 420 0 420 -585 0 -585 0 0 -420z m660
354 c0 -15 -30 -19 -46 -5 -8 7 -114 -7 -164 -21 -8 -3 -11 -3 -6 0 4 2 2 8
-5 12 -21 14 48 28 139 28 65 1 82 -2 82 -14z m57 -7 c12 -7 22 -16 22 -22 0
-5 5 -11 12 -14 7 -2 9 1 4 9 -13 22 34 -9 81 -52 44 -41 100 -125 90 -135 -3
-4 -6 -1 -6 5 0 7 -6 12 -13 12 -7 0 -21 14 -31 30 -29 50 -88 101 -151 131
-33 16 -53 29 -45 29 13 0 13 1 0 10 -13 9 -13 10 0 9 8 0 25 -5 37 -12z
m-299 -19 c-2 -7 -23 -27 -48 -44 -52 -36 -93 -85 -119 -145 -10 -22 -20 -36
-23 -29 -2 6 -4 -19 -5 -57 -2 -37 -5 -86 -8 -108 -5 -29 -3 -36 4 -25 9 12
11 10 12 -10 1 -14 1 -36 0 -50 -1 -17 1 -21 7 -12 7 10 12 5 22 -18 20 -49
95 -118 161 -149 33 -16 54 -31 47 -34 -7 -3 10 -3 37 0 34 3 46 2 36 -5 -11
-8 -10 -11 5 -15 12 -3 8 -5 -12 -6 -39 -1 -124 27 -121 41 1 6 -4 13 -12 16
-9 3 -11 0 -6 -9 5 -8 -5 -5 -25 7 -18 10 -33 24 -32 29 1 15 -19 36 -28 30
-12 -8 -60 54 -87 111 -32 71 -39 154 -19 234 18 70 64 155 84 155 7 0 18 11
25 25 11 22 82 79 100 80 4 0 6 -6 5 -12z m269 -303 c56 -126 103 -232 103
-237 0 -34 -30 21 -115 210 -54 119 -99 218 -100 220 -1 1 -46 -97 -101 -218
-87 -194 -114 -244 -114 -211 0 6 45 110 100 231 55 122 100 226 100 232 0 38
37 -28 127 -227z m238 95 c8 0 17 -23 24 -63 13 -73 13 -101 2 -72 -5 13 -8
-1 -7 -40 2 -149 -157 -309 -320 -323 -75 -6 -70 13 7 27 33 5 81 22 106 36
54 30 60 31 42 7 -13 -15 -12 -16 3 -3 10 7 16 17 13 21 -2 4 10 20 26 36 45
42 76 94 92 155 16 58 31 198 18 164 -7 -18 -9 -16 -13 10 -3 17 -7 37 -10 45
-3 8 -3 12 -1 8 3 -5 11 -8 18 -8z m-600 -400 c4 -6 -15 -9 -52 -8 l-58 1 50
7 c28 4 51 8 52 8 1 1 5 -2 8 -8z m-135 -76 c0 -8 -5 -12 -10 -9 -6 4 -8 11
-5 16 9 14 15 11 15 -7z m673 -11 c-7 -2 -21 -2 -30 0 -10 3 -4 5 12 5 17 0
24 -2 18 -5z m-133 -12 c0 -5 -7 -12 -16 -15 -14 -5 -15 -4 -4 9 14 17 20 19
20 6z"/>
<path d="M498 773 c6 -2 18 -2 25 0 6 3 1 5 -13 5 -14 0 -19 -2 -12 -5z"/>
<path d="M805 690 c3 -5 11 -10 16 -10 6 0 7 5 4 10 -3 6 -11 10 -16 10 -6 0
-7 -4 -4 -10z"/>
<path d="M860 636 c0 -2 8 -10 18 -17 15 -13 16 -12 3 4 -13 16 -21 21 -21 13z"/>
<path d="M354 715 c-10 -8 -14 -15 -8 -15 6 0 17 7 24 15 16 19 9 19 -16 0z"/>
<path d="M246 595 c-9 -26 -7 -32 5 -12 6 10 9 21 6 23 -2 3 -7 -2 -11 -11z"/>
<path d="M201 434 c0 -11 3 -14 6 -6 3 7 2 16 -1 19 -3 4 -6 -2 -5 -13z"/>
<path d="M266 205 c4 -8 11 -15 16 -15 6 0 5 6 -2 15 -7 8 -14 15 -16 15 -2 0
-1 -7 2 -15z"/>
<path d="M923 315 c-3 -9 -3 -18 -1 -21 3 -3 8 4 11 16 6 23 -1 27 -10 5z"/>
<path d="M890 238 c-12 -22 -12 -22 6 -6 10 10 15 20 12 24 -4 3 -12 -5 -18
-18z"/>
<path d="M846 174 c-5 -14 -4 -15 9 -4 17 14 19 20 6 20 -5 0 -12 -7 -15 -16z"/>
<path d="M710 80 c-8 -5 -10 -10 -5 -10 6 0 17 5 25 10 8 5 11 10 5 10 -5 0
-17 -5 -25 -10z"/>
<path d="M628 53 c7 -3 16 -2 19 1 4 3 -2 6 -13 5 -11 0 -14 -3 -6 -6z"/>
</g>
</svg>
